# xmcd
#
# Track frame offsets: 
#        150
#        11061
#        24786
#        37319
#        50344
#        61797
#        73688
#        84671
#        97522
#        108512
#        122904
#        134879
#        145401
#        156734
#        169315
#        180267
#        191933
#        203768
#        216594
#        228805
#        239314
#        252702
#        263723
#        275876
#        285512
#        299458
#
# Disc length: 4111 seconds
#
# Revision: 0
# Processed by: cddbd v1.5.2PL0 Copyright (c) Steve Scherf et al.
# Submitted via: ExactAudioCopy v0.99pb4
#
DISCID=99100d1a
DTITLE=Various Artist - The OKeh Rhythm and Blues Story 1949-1957 Volum
DTITLE=e 2
DYEAR=2008
DGENRE=R&B
TTITLE0=Jumpin' Joe Williams With Red Saunders and His Orchestra - Hey B
TTITLE0=ar Tender Give That Man A Drink
TTITLE1=Little Brother Brown - Goof Boogie
TTITLE2=Chuck Willis - I Rule My House
TTITLE3=Pinnochio James - Pinnochio's Blues
TTITLE4=Larry Darnell - I'll Be Sittin',I'll Be Rockin'
TTITLE5=Annie Laurie - It's Been A Long Time
TTITLE6=Hadda Brooks - Jump Back Honey
TTITLE7=Titus Turner - Got So Much Trouble
TTITLE8=The Royals - Gas Happy Mama
TTITLE9=Chuck Willis With The Royals - My Story
TTITLE10=Big Maybelle - Gabbin' Blues
TTITLE11=The Treniers - The Moondog
TTITLE12=Annie Laurie - Stop Talkin' And Start Walkin'
TTITLE13=Red Rodney Sextet - Dig This Menu Please!
TTITLE14=Paul Gayten - It Ain't Nothing Happening
TTITLE15=Chuck Willis - You Broke My Heart
TTITLE16=The Treniers - Poontang
TTITLE17=Hadda Brooks - Brook's Boogie
TTITLE18=Big Maybelle - Jinny Mule
TTITLE19=Titus Turner - Livin' In Misery
TTITLE20=Jumpin' Joe Williams With Red Saunders and His Orchestra - Vood
TTITLE20=oo Blues
TTITLE21=Bill Davis Trio - Bring The Money In
TTITLE22=Sammy Cotton - You The Kind Of Woman
TTITLE23=Annie Laurie - I'm In The Mood For You
TTITLE24=Chuck Willis - Make Up Your Mind
TTITLE25=Paul Gayten - Cow Cow Blues
EXTD=
EXTT0=
EXTT1=
EXTT2=
EXTT3=
EXTT4=
EXTT5=
EXTT6=
EXTT7=
EXTT8=
EXTT9=
EXTT10=
EXTT11=
EXTT12=
EXTT13=
EXTT14=
EXTT15=
EXTT16=
EXTT17=
EXTT18=
EXTT19=
EXTT20=
EXTT21=
EXTT22=
EXTT23=
EXTT24=
EXTT25=
PLAYORDER=
